:FULLY-SPECIFIED
:FORCE-ALL-JOINTS-BE-3DOF
:DEGREES
1427
root -3.12371 15.1896 13.2702 -153.989 70.7049 -150.524
lfemur -23.6092 11.638 -15.5665
ltibia 77.0061 -0 0
lfoot -20.7503 22.8961 -0.0928456
ltoes -15.948 0 0
rfemur -42.4716 -0.947729 8.94992
rtibia 48.9605 -0 0
rfoot 2.08625 -1.76273 1.46105
rtoes -12.0066 0 0
lowerback 15.2517 1.0987 -2.41516
upperback -1.4208 1.13965 2.71981
thorax -9.98632 0.672593 4.02375
lowerneck -4.93233 0.76405 -2.79554
upperneck 9.62689 1.42536 -1.8087
head 4.58529 0.406795 -0.490747
lclavicle -3.09086e-15 -2.31112e-14 -3.54009e-30
lhumerus -23.5228 -51.9411 102.219
lradius 114.312 -0 0
lwrist 24.5321 0 0
lhand -27.8666 59.3453 0.0600402
lfingers 7.12502 -0 0
lthumb -1.20595 -10.8361 -1.34787
rclavicle -3.09086e-15 -2.31112e-14 -3.54009e-30
rhumerus 0.408639 38.2295 -64.8242
rradius 105.832 -0 0
rwrist -27.2923 0 0
rhand -6.88841 -29.15 0.164479
rfingers 7.12502 -0 0
rthumb 18.887 -57.0717 0.480217
1428
root -3.13909 15.1904 13.338 -154.884 70.022 -151.484
lfemur -23.7932 11.6861 -15.5469
ltibia 77.1837 -0 0
lfoot -20.6784 22.8823 -0.092716
ltoes -15.9696 0 0
rfemur -42.4715 -0.940206 9.03199
rtibia 49.109 -0 0
rfoot 1.8404 -1.8271 1.45898
rtoes -12.203 0 0
lowerback 15.2762 1.10477 -2.33592
upperback -1.42021 1.16205 2.73306
thorax -10.0006 0.678938 3.98805
lowerneck -4.92659 0.847608 -2.72768
upperneck 9.56792 1.53829 -1.89021
head 4.56705 0.461725 -0.522017
lclavicle -3.33361e-15 -2.32664e-14 -3.53516e-30
lhumerus -23.3029 -52.0284 102.036
lradius 114.341 -0 0
lwrist 24.3549 0 0
lhand -27.8528 59.3918 0.0599565
lfingers 7.12502 -0 0
lthumb -1.18547 -11.692 -1.34557
rclavicle -3.33361e-15 -2.32664e-14 -3.53516e-30
rhumerus -0.0295453 38.341 -64.9953
rradius 105.868 -0 0
rwrist -27.5173 0 0
rhand -6.69679 -29.1407 0.164247
rfingers 7.12502 -0 0
rthumb 19.0711 -57.0437 0.479542
1429
root -3.15446 15.1913 13.4058 -155.719 69.3343 -152.382
lfemur -23.9773 11.7343 -15.5274
ltibia 77.3612 -0 0
lfoot -20.6065 22.8686 -0.0925692
ltoes -15.9913 0 0
rfemur -42.4715 -0.932683 9.11406
rtibia 49.2574 -0 0
rfoot 1.59456 -1.89146 1.45663
rtoes -12.3994 0 0
lowerback 15.3008 1.1108 -2.25669
upperback -1.41962 1.18444 2.74632
thorax -10.015 0.685274 3.95236
lowerneck -4.92075 0.93116 -2.65982
upperneck 9.50879 1.65114 -1.97183
head 4.54878 0.516645 -0.553305
lclavicle -3.57635e-15 -2.34216e-14 -3.52957e-30
lhumerus -23.0822 -52.1153 101.852
lradius 114.371 -0 0
lwrist 24.1776 0 0
lhand -27.8391 59.4383 0.0598617
lfingers 7.12502 -0 0
lthumb -1.16503 -12.5479 -1.34296
rclavicle -3.57635e-15 -2.34216e-14 -3.52957e-30
rhumerus -0.468826 38.4515 -65.1677
rradius 105.905 -0 0
rwrist -27.7423 0 0
rhand -6.50517 -29.1315 0.163985
rfingers 7.12502 -0 0
rthumb 19.2552 -57.0157 0.478776
1430
root -3.16984 15.1922 13.4736 -156.497 68.6423 -153.225
lfemur -24.1614 11.7826 -15.5081
ltibia 77.5388 -0 0
lfoot -20.5345 22.8548 -0.0924051
ltoes -16.0129 0 0
rfemur -42.4714 -0.92516 9.19613
rtibia 49.4059 -0 0
rfoot 1.34872 -1.95582 1.454
rtoes -12.5958 0 0
lowerback 15.3254 1.1168 -2.17745
upperback -1.41902 1.20683 2.75958
thorax -10.0293 0.691601 3.91665
lowerneck -4.91482 1.0147 -2.59194
upperneck 9.4495 1.7639 -2.05358
head 4.53047 0.571556 -0.584611
lclavicle -3.8191e-15 -2.35769e-14 -3.52333e-30
lhumerus -22.8606 -52.2018 101.667
lradius 114.4 -0 0
lwrist 24.0004 0 0
lhand -27.8253 59.4848 0.0597556
lfingers 7.12502 -0 0
lthumb -1.14462 -13.4038 -1.34004
rclavicle -3.8191e-15 -2.35769e-14 -3.52333e-30
rhumerus -0.909202 38.5609 -65.3414
rradius 105.941 -0 0
rwrist -27.9672 0 0
rhand -6.31355 -29.1223 0.163692
rfingers 7.12502 -0 0
rthumb 19.4393 -56.9877 0.477921
1431
root -3.18522 15.193 13.5413 -157.225 67.9463 -154.018
lfemur -24.3455 11.8309 -15.489
ltibia 77.7164 -0 0
lfoot -20.4626 22.8411 -0.0922238
ltoes -16.0346 0 0
rfemur -42.4713 -0.917638 9.2782
rtibia 49.5543 -0 0
rfoot 1.10289 -2.02016 1.4511
rtoes -12.7922 0 0
lowerback 15.35 1.12277 -2.09821
upperback -1.41842 1.22922 2.77284
thorax -10.0437 0.697919 3.88095
lowerneck -4.90878 1.09824 -2.52406
upperneck 9.39004 1.87658 -2.13546
head 4.51214 0.626456 -0.615934
lclavicle -4.06184e-15 -2.37321e-14 -3.51642e-30
lhumerus -22.6381 -52.2878 101.481
lradius 114.43 -0 0
lwrist 23.8231 0 0
lhand -27.8116 59.5313 0.0596385
lfingers 7.12502 -0 0
lthumb -1.12427 -14.2597 -1.33682
rclavicle -4.06184e-15 -2.37321e-14 -3.51642e-30
rhumerus -1.35067 38.6693 -65.5165
rradius 105.978 -0 0
rwrist -28.1922 0 0
rhand -6.12193 -29.1131 0.163368
rfingers 7.12502 -0 0
rthumb 19.6234 -56.9597 0.476976
1432
root -3.20059 15.1939 13.6091 -157.907 67.2468 -154.765
lfemur -24.5297 11.8793 -15.4701
ltibia 77.894 -0 0
lfoot -20.3907 22.8273 -0.0920252
ltoes -16.0562 0 0
rfemur -42.4713 -0.910115 9.36027
rtibia 49.7028 -0 0
rfoot 0.857058 -2.08449 1.44793
rtoes -12.9885 0 0
lowerback 15.3746 1.1287 -2.01897
upperback -1.41781 1.25161 2.7861
thorax -10.058 0.704228 3.84525
lowerneck -4.90265 1.18177 -2.45616
upperneck 9.33042 1.98917 -2.21745
head 4.49377 0.681346 -0.647276
lclavicle -4.30459e-15 -2.38873e-14 -3.50886e-30
lhumerus -22.4147 -52.3734 101.294
lradius 114.459 -0 0
lwrist 23.6459 0 0
lhand -27.7978 59.5778 0.0595101
lfingers 7.12502 -0 0
lthumb -1.10396 -15.1156 -1.3333
rclavicle -4.30459e-15 -2.38873e-14 -3.50886e-30
rhumerus -1.79323 38.7767 -65.693
rradius 106.014 -0 0
rwrist -28.4172 0 0
rhand -5.93031 -29.1038 0.163013
rfingers 7.12502 -0 0
rthumb 19.8075 -56.9317 0.47594
